<?xml version="1.0" encoding="UTF-8"?>
<svg id="Layer_1" data-name="Layer 1" xmlns="http://www.w3.org/2000/svg" viewBox="0 0 1490.8 485.77">
  <defs>
    <style>
      .cls-1 {
        fill: #0d1b2a;
      }
    </style>
  </defs>
  <path class="cls-1" d="M140.52,22.67c67.17-31.42,145.27-29.64,211.52,2.81,17.15,8.4,30.93,18.41,45.9,30.58,43.08,35.03,69.45,92.56,84.87,145.31l6.2,21.22,24.7,101.82c10.46,43.11,24.51,101.95,57.38,131.92,17.31,15.79,39.96,20.72,62.69,18.93,20.57-1.62,37.52-13.59,48.27-30.91,15.81-25.49,18.23-66.19,9.64-93.99-6.18-19.99-16.65-37.65-30.69-53.65-14.47-16.49-33.49-27.77-51.12-41.2-2.11-1.61-3.79-2.78-5.76-4.02-11.6-7.29-22.55-15.03-33.46-23.49l-6.54-5.07c-.83-.69-1.68-1.43-2.55-2.23-1.21-1.11-2.3-2.22-3.3-3.28l-9.69-9.62c-14.27-14.17-21.74-32.4-29.26-50.71-8.28-20.17-8.06-56.43-3.52-76.66,7.56-33.67,29.86-61.88,62.4-73.38,14.31-5.06,27.49-7.31,40.4-7,4.95.12,25.57.88,48.44,12.57,6.18,3.16,11.03,6.35,14.39,8.75,3.54,2.46,7.15,5.32,10.71,8.67,18.7,17.6,26.03,39.18,29.14,52.73l-48.73-.03-7.15-23.93c-2.6-8.71-9.61-19-15.34-26.81-13.68-18.66-37.2-27.86-57.82-19.07-35.69,15.21-48.98,56.67-43.48,93.7,2.68,18.06,11.37,35.24,21.83,50.59,10.09,14.8,24.59,25.86,39.2,36.45l51.85,37.57,13.83,10.68,9.99,9.09c5.05,4.6,9.75,8.8,14.44,13.78,42.43,45.08,48.38,105.96,22.7,161.56-10.64,23.02-30.62,41.73-54.38,51.41-36.33,14.81-93.05,8.12-124.63-14.16-1.65-1.29-3.29-2.58-4.94-3.87-20.36-15.72-32.8-32.02-40.35-44.12-5.06-8.1-8.33-15.01-11.45-21.52-8.35-17.41-14.92-35.53-19.88-54.55l-16.5-63.32-26.2-104.84c-2.6-10.42-17.83-47.98-23.84-59.38-13.85-26.28-30.48-49.36-54.68-67.06-22.27-16.29-50.07-29.66-77.99-33.58C181.32-.79,101.95,76.64,67.56,142.86c-13.24,25.5-19.56,48.94-22.82,65.48-2.1,8.22-3.96,17.84-4.98,28.64-1.44,15.2-.84,28.59.42,39.43.57,4.96,1.5,8.37,2.6,13.25,3.62,16.06,8.2,29.01,11.92,38.22,1.28,3.17,4.2,10.18,9.64,20.92,8.49,16.74,15.75,31.07,28.13,47.15,25.65,33.32,54.18,49.39,60.94,53.06,2.02,1.1,3.55,1.88,3.9,2.06,46.33,23.57,98.35,16.42,112.06,14.44,54.11-7.82,87.03-34.93,87.03-34.93,15.73-14.39,28.67-30.51,40.48-49.74h43.85c-5.39,10.41-11.41,18.15-19.19,25.7l-13.13,12.76c-2.46,2.39-4.64,4.44-6.84,6.44,0,0-4.35,3.95-8.59,7.47-16.61,13.78-33.63,23.03-33.63,23.03-2.93,1.59-6.44,3.4-10.47,5.28-74.95,36.34-163.72,31.66-234.42-12.62-.86-.55-1.71-1.09-2.57-1.64-.64-.46-1.76-1.26-3.14-2.27-11.18-8.23-97.22-73.62-107.71-183.1-1.64-17.15-1.03-31.18-.3-40.11,0,0,6.25-94.74,80.73-160.28,20.86-18.36,34.44-27.3,59.05-38.82Z"/>
  <path class="cls-1" d="M1350.28,22.67c-67.17-31.42-145.27-29.64-211.52,2.81-17.15,8.4-30.93,18.41-45.9,30.58-43.08,35.03-69.45,92.56-84.87,145.31l-6.2,21.22-24.7,101.82c-10.46,43.11-24.51,101.95-57.38,131.92-17.31,15.79-39.96,20.72-62.69,18.93-20.57-1.62-37.52-13.59-48.27-30.91-15.81-25.49-18.23-66.19-9.64-93.99,6.18-19.99,16.65-37.65,30.69-53.65,14.47-16.49,33.49-27.77,51.12-41.2,2.11-1.61,3.79-2.78,5.76-4.02,11.6-7.29,22.55-15.03,33.46-23.49l6.54-5.07c.83-.69,1.68-1.43,2.55-2.23,1.21-1.11,2.3-2.22,3.3-3.28l9.69-9.62c14.27-14.17,21.74-32.4,29.26-50.71,8.28-20.17,8.06-56.43,3.52-76.66-7.56-33.67-29.86-61.88-62.4-73.38-14.31-5.06-27.49-7.31-40.4-7-4.95.12-25.57.88-48.44,12.57-6.18,3.16-11.03,6.35-14.39,8.75-3.54,2.46-7.15,5.32-10.71,8.67-18.7,17.6-26.03,39.18-29.14,52.73l48.73-.03,7.15-23.93c2.6-8.71,9.61-19,15.34-26.81,13.68-18.66,37.2-27.86,57.82-19.07,35.69,15.21,48.98,56.67,43.48,93.7-2.68,18.06-11.37,35.24-21.83,50.59-10.09,14.8-24.59,25.86-39.2,36.45l-51.85,37.57-13.83,10.68-9.99,9.09c-5.05,4.6-9.75,8.8-14.44,13.78-42.43,45.08-48.38,105.96-22.7,161.56,10.64,23.02,30.62,41.73,54.38,51.41,36.33,14.81,93.05,8.12,124.63-14.16,1.65-1.29,3.29-2.58,4.94-3.87,20.36-15.72,32.8-32.02,40.35-44.12,5.06-8.1,8.33-15.01,11.45-21.52,8.35-17.41,14.92-35.53,19.88-54.55l16.5-63.32,26.2-104.84c2.6-10.42,17.83-47.98,23.84-59.38,13.85-26.28,30.48-49.36,54.68-67.06,22.27-16.29,50.07-29.66,77.99-33.58,86.45-12.15,165.82,65.29,200.21,131.5,13.24,25.5,19.56,48.94,22.82,65.48,2.1,8.22,3.96,17.84,4.98,28.64,1.44,15.2.84,28.59-.42,39.43-.57,4.96-1.5,8.37-2.6,13.25-3.62,16.06-8.2,29.01-11.92,38.22-1.28,3.17-4.2,10.18-9.64,20.92-8.49,16.74-15.75,31.07-28.13,47.15-25.65,33.32-54.18,49.39-60.94,53.06-2.02,1.1-3.55,1.88-3.9,2.06-46.33,23.57-98.35,16.42-112.06,14.44-54.11-7.82-87.03-34.93-87.03-34.93-15.73-14.39-28.67-30.51-40.48-49.74h-43.85c5.39,10.41,11.41,18.15,19.19,25.7l13.13,12.76c2.46,2.39,4.64,4.44,6.84,6.44,0,0,4.35,3.95,8.59,7.47,16.61,13.78,33.63,23.03,33.63,23.03,2.93,1.59,6.44,3.4,10.47,5.28,74.95,36.34,163.72,31.66,234.42-12.62.86-.55,1.71-1.09,2.57-1.64.64-.46,1.76-1.26,3.14-2.27,11.18-8.23,97.22-73.62,107.71-183.1,1.64-17.15,1.03-31.18.3-40.11,0,0-6.25-94.74-80.73-160.28-20.86-18.36-34.44-27.3-59.05-38.82Z"/>
</svg>