<?xml version="1.0" encoding="UTF-8"?>
<svg id="Layer_1" data-name="Layer 1" xmlns="http://www.w3.org/2000/svg" viewBox="0 0 2702.3 655.66">
  <defs>
    <style>
      .cls-1 {
        fill: #0d1b2a;
      }
    </style>
  </defs>
  <path class="cls-1" d="M162.05,133.07c59.4-27.79,128.48-26.21,187.07,2.48,15.17,7.43,27.36,16.28,40.59,27.04,38.1,30.98,61.43,81.86,75.06,128.51l5.48,18.76,21.84,90.05c9.25,38.13,21.68,90.17,50.75,116.67,15.31,13.96,35.34,18.33,55.45,16.74,18.19-1.44,33.18-12.02,42.69-27.34,13.98-22.54,16.12-58.54,8.52-83.13-5.46-17.68-14.73-33.3-27.14-47.45-12.79-14.58-29.62-24.56-45.21-36.43-1.87-1.42-3.35-2.46-5.09-3.56-10.26-6.45-19.95-13.29-29.59-20.78l-5.78-4.49c-.74-.61-1.49-1.27-2.25-1.97-1.07-.99-2.04-1.96-2.92-2.9l-8.57-8.51c-12.62-12.53-19.23-28.65-25.88-44.84-7.33-17.84-7.13-49.9-3.11-67.8,6.68-29.78,26.41-54.72,55.19-64.9,12.66-4.47,24.32-6.47,35.73-6.19,4.37.1,22.62.78,42.84,11.12,5.46,2.79,9.76,5.62,12.73,7.74,3.13,2.17,6.32,4.71,9.47,7.67,16.54,15.56,23.02,34.65,25.77,46.63l-43.09-.02-6.32-21.16c-2.3-7.7-8.5-16.8-13.56-23.71-12.1-16.5-32.9-24.64-51.13-16.86-31.56,13.45-43.32,50.12-38.46,82.87,2.37,15.98,10.05,31.17,19.3,44.74,8.92,13.09,21.75,22.87,34.67,32.23l45.86,33.23,12.23,9.44,8.84,8.04c4.47,4.07,8.62,7.78,12.77,12.19,37.53,39.87,42.79,93.72,20.07,142.89-9.41,20.36-27.08,36.91-48.09,45.47-32.13,13.1-82.29,7.18-110.23-12.53-1.46-1.14-2.91-2.28-4.37-3.42-18-13.9-29.01-28.32-35.69-39.02-4.47-7.16-7.37-13.27-10.13-19.03-7.39-15.4-13.2-31.43-17.58-48.24l-14.59-56-23.17-92.72c-2.3-9.21-15.77-42.43-21.08-52.52-12.25-23.24-26.96-43.65-48.36-59.31-19.69-14.41-44.28-26.23-68.98-29.7-76.46-10.74-146.66,57.74-177.07,116.3-11.71,22.55-17.3,43.28-20.18,57.91-1.85,7.27-3.5,15.77-4.4,25.33-1.28,13.44-.74,25.28.37,34.87.51,4.38,1.33,7.4,2.3,11.72,3.2,14.2,7.25,25.66,10.55,33.8,1.13,2.8,3.71,9,8.53,18.5,7.51,14.81,13.93,27.48,24.88,41.7,22.68,29.47,47.92,43.68,53.9,46.93,1.79.97,3.14,1.66,3.45,1.82,40.97,20.84,86.99,14.52,99.11,12.77,47.86-6.91,76.97-30.89,76.97-30.89,13.91-12.73,25.36-26.98,35.8-43.99h38.78c-4.77,9.21-10.09,16.05-16.97,22.73l-11.62,11.28c-2.17,2.11-4.1,3.93-6.05,5.69,0,0-3.85,3.49-7.6,6.61-14.69,12.19-29.75,20.37-29.75,20.37-2.59,1.41-5.69,3-9.26,4.67-66.28,32.14-144.79,28-207.32-11.16-.76-.48-1.51-.96-2.27-1.45-.57-.41-1.56-1.12-2.77-2.01-9.89-7.28-85.98-65.11-95.26-161.94-1.45-15.17-.91-27.58-.27-35.47,0,0,5.52-83.79,71.4-141.76,18.45-16.24,30.46-24.15,52.22-34.33Z"/>
  <g>
    <path class="cls-1" d="M906.49,538.68h-193.98v-5.28h2.64c6.16,0,11-1.76,14.52-5.28,5.28-5.28,7.92-14.52,7.92-29.03v-194.86c0-14.52-2.64-23.75-7.92-29.03-3.52-3.52-7.92-5.28-14.08-5.28h-2.64v-5.28h185.62v47.07h-5.28l-.44-.88c-10.56-25.95-30.35-36.95-65.98-36.95h-48.83v111.73h37.39c29.47,0,43.98-6.16,51.46-21.99l1.32-2.64h5.28v61.58h-5.28l-1.32-3.08c-7.48-18.04-21.99-25.07-51.46-25.07h-37.39v134.6h57.62c32.11,0,50.58-9.24,61.58-31.67l4.84-10.99h5.28l-.88,52.34Z"/>
    <path class="cls-1" d="M1140.49,539.56h-194.42v-5.28h1.32c6.6,0,11.44-1.76,14.95-5.28,5.28-5.28,7.92-14.52,7.92-29.03v-194.86c0-14.52-2.64-23.75-7.92-29.03-3.52-3.52-7.92-5.28-14.08-5.28h-2.64v-5.28h88.85v5.28h-2.64c-5.72,0-10.56,1.76-14.08,5.28-5.28,5.28-7.92,14.52-7.92,29.03v224.77h58.5c34.75,0,53.22-11,64.22-37.83l2.64-5.72h4.84l.44,53.22Z"/>
    <path class="cls-1" d="M1369.2,538.68h-193.98v-5.28h2.64c6.16,0,11-1.76,14.52-5.28,5.28-5.28,7.92-14.52,7.92-29.03v-194.86c0-14.52-2.64-23.75-7.92-29.03-3.52-3.52-7.92-5.28-14.08-5.28h-2.64v-5.28h185.62v47.07h-5.28l-.44-.88c-10.56-25.95-30.35-36.95-65.98-36.95h-48.83v111.73h37.39c29.47,0,43.98-6.16,51.46-21.99l1.32-2.64h5.28v61.58h-5.28l-1.32-3.08c-7.48-18.04-21.99-25.07-51.46-25.07h-37.39v134.6h57.62c32.11,0,50.58-9.24,61.58-31.67l4.84-10.99h5.28l-.88,52.34Z"/>
    <path class="cls-1" d="M1601,418.16c12.75,12.32,19.79,28.15,19.79,45.75,0,9.24-2.2,18.47-6.16,28.15-9.24,20.67-29.47,32.99-40.91,38.71-16.71,7.92-36.07,11.88-55.86,11.88-11.88,0-23.75-1.32-35.63-4.4-19.79-5.28-36.95-12.32-41.79-14.52-.88-.44-2.64-.88-3.52-.88-5.72-.44-8.36,2.64-8.36,2.64h-7.04v-70.82h5.28l.44,1.32c11,36.95,28.15,60.26,52.34,70.82,8.36,3.52,17.59,5.72,26.39,6.6,26.39,2.64,58.94-5.72,72.58-29.91,14.52-26.39,0-51.91-20.67-65.54-11-7.48-23.31-11.88-34.31-15.83l-12.32-4.4c-28.15-10.12-60.26-21.55-78.3-44.87-16.71-21.55-14.95-55.86,3.96-78.3,6.16-7.04,14.08-13.63,22.43-18.47,15.39-8.8,34.31-13.2,55.86-13.2s43.11,3.96,63.34,11.44c2.2.44,8.8,2.2,11.88-1.32l.44-.44h7.04v64.66h-5.28l-.44-.88c-3.52-11-15.4-34.31-25.51-45.75-7.92-8.8-19.79-14.95-33.87-17.59-13.64-2.64-25.51-2.64-36.51,0-18.91,4.4-39.15,20.67-39.15,45.31,0,36.95,44.43,51.9,63.34,58.5l6.6,2.2c26.83,8.8,54.54,18.04,75.21,37.83l-1.32,1.32Z"/>
    <path class="cls-1" d="M1910.65,265.09v53.66h-5.28l-2.2-5.72c-11-27.71-30.35-39.59-64.22-39.59h-34.75v224.77c0,14.52,2.64,23.75,7.92,29.03,3.52,3.52,7.92,5.28,14.08,5.28h2.64v5.28h-89.29v-5.28h2.64c6.16,0,11-1.76,14.52-5.28,5.28-5.28,7.92-14.52,7.92-29.03v-224.77h-34.75c-33.87,0-53.22,11.88-64.66,39.59l-2.2,5.72h-5.28v-53.66h252.92Z"/>
    <path class="cls-1" d="M2009.17,304.68v194.86c0,14.52,2.64,23.75,7.92,29.03,3.52,3.52,8.36,5.28,14.52,5.28h2.64v5.28h-88.85v-5.28h1.32c6.6,0,11.44-1.76,14.95-5.28,5.28-5.28,7.92-14.52,7.92-29.03v-194.86c0-14.52-2.64-23.75-7.92-29.03-3.52-3.52-7.92-5.28-14.08-5.28h-2.64v-5.28h88.85v5.28h-2.64c-5.72,0-10.56,1.76-14.08,5.28-5.28,5.28-7.92,14.52-7.92,29.03Z"/>
    <path class="cls-1" d="M2347.86,537.8h-99.85v-5.28h8.36c5.28-.88,9.24-2.64,11.44-5.72,3.52-4.84,3.08-12.32-.88-23.31l-29.03-69.06h-98.09l-22.43,61.14c-4.84,14.95-4.84,24.63-.44,30.79,3.52,4.84,9.68,7.04,18.48,7.04h3.08v5.28h-70.82v-5.28h2.2c14.95,0,25.51-9.68,34.31-31.67l87.53-235.77h16.28l.44.88,102.05,234.89c8.36,18.03,17.15,27.27,28.59,30.35h2.64c1.32.44,6.6.88,6.6.88l-.44,4.84ZM2234.37,424.76l-48.82-116.13-42.23,116.13h91.05Z"/>
    <path class="cls-1" d="M2571.73,539.56h-194.42v-5.28h1.32c6.6,0,11.44-1.76,14.95-5.28,5.28-5.28,7.92-14.52,7.92-29.03v-194.86c0-14.52-2.64-23.75-7.92-29.03-3.52-3.52-7.92-5.28-14.08-5.28h-2.64v-5.28h88.85v5.28h-2.64c-5.72,0-10.56,1.76-14.08,5.28-5.28,5.28-7.92,14.52-7.92,29.03v224.77h58.5c34.75,0,53.22-11,64.22-37.83l2.64-5.72h4.84l.44,53.22Z"/>
    <path class="cls-1" d="M2657.93,504.37c4.4,4.4,6.6,9.24,6.6,14.95,0,6.16-2.2,11-6.6,14.96-4.4,4.4-9.24,6.6-14.95,6.6-6.16,0-11-2.2-15.4-6.6-4.4-3.96-6.6-8.8-6.6-14.96,0-5.72,2.2-10.55,6.6-14.52,4.4-4.4,9.24-6.6,15.4-6.6s10.99,2.2,15.39,6.6l-.44-.44Z"/>
  </g>
</svg>