<?xml version='1.0' encoding='utf-8'?>
<svg xmlns="http://www.w3.org/2000/svg" xmlns:xlink="http://www.w3.org/1999/xlink" version="1.1" viewBox="45 474 989 139" id="Layer_1" data-name="Layer 1">
<defs>
<path id="font_1_5" d="M.47099305 .2761078C.42399598 .3210907 .36099244 .3420868 .2999878 .3620758L.2849884 .3670807C.24198914 .38206483 .14099121 .4160614 .14099121 .50001528 .14099121 .55599978 .18699646 .59298709 .22999573 .60298159 .25498963 .6089783 .28199769 .6089783 .31298829 .60298159 .34498597 .59698489 .37199403 .58299258 .3899994 .56300356 .41299439 .53700259 .43998719 .48402406 .44799806 .4590454L.44898988 .4570465H.46099855V.6039734H.44499208L.44400025 .60298159C.43699647 .59498599 .42199708 .59898379 .4169922 .5999756 .37098695 .6169739 .31999208 .62597659 .272995 .62597659 .22399903 .62597659 .18099976 .61598208 .1459961 .5959778 .1269989 .58499148 .10899353 .56999209 .09498596 .55400088 .051986696 .50302127 .04798889 .42504884 .085998538 .37606813 .1269989 .3230896 .19999695 .29710389 .2639923 .2741089L.2919922 .26411439C.31698609 .25512696 .34498597 .24511719 .36999513 .22813416 .4169922 .19714356 .44999696 .13916016 .4169922 .079193118 .38598634 .024215699 .31199647 .005218506 .2519989 .01121521 .23199463 .013214111 .21099854 .018218995 .19198609 .0262146 .13699341 .050201417 .09799194 .10317993 .07299805 .18714905L.07199097 .19013977H.05999756V.029205323H.07598877C.07598877 .029205323 .08198547 .036209108 .09498596 .035202028 .09700012 .035202028 .100997928 .034210206 .102996829 .033203126 .11399841 .028213501 .15299988 .01222229 .19799805 .00022888184 .22499085-.0067749025 .2519989-.009765625 .2789917-.009765625 .32398988-.009765625 .36799623-.00077819827 .4059906 .017211914 .43199159 .030212403 .47799684 .05819702 .49899293 .10517883 .5079956 .12716675 .5130005 .14816284 .5130005 .16915894 .5130005 .20913697 .49699403 .24511719 .46798707 .27311708L.47099305 .2761078Z" />
<path id="font_1_2" d="M.47099305 .11805725H.45899964L.44799806 .093048099C.4229889 .042022706 .3809967 .021011353 .30799867 .021011353H.1769867V.32714845H.2619934C.32899476 .32714845 .3619995 .3111267 .3789978 .27011109L.38198854 .2631073H.3939972V.40312196H.38198854L.3789978 .39712525C.3619995 .36112977 .32899476 .34713746 .2619934 .34713746H.1769867V.60105898H.28799439C.36898805 .60105898 .4139862 .57606509 .43798829 .51708987L.43899537 .51509097H.45098878V.6220703H.0289917V.61006167H.034988405C.04899597 .61006167 .05899048 .60606387 .066986087 .59806826 .07899475 .5860596 .084991458 .56507876 .084991458 .53208926V.08905029C.084991458 .056030275 .07899475 .03501892 .066986087 .023010254 .05899048 .015014648 .04798889 .011016846 .033996583 .011016846H.027999878V-.0009765625H.46899415L.47099305 .11805725Z" />
<path id="font_1_4" d="M.47200013 .11807251H.46099855L.45498658 .10507202C.42999269 .044067384 .3880005 .019058228 .30899049 .019058228H.17599488V.5301056C.17599488 .56311038 .18199158 .58410647 .19400025 .59609988 .20199585 .6041107 .21299744 .6081085 .22599793 .6081085 .22698975 .6081085 .22799683 .6081085 .22898865 .6081085H.23199463V.6201172H.02999878V.6081085H.035995485C.049987794 .6081085 .05999756 .6041107 .067993167 .59609988 .07998657 .58410647 .085998538 .56311038 .085998538 .5301056V.08706665C.085998538 .05406189 .07998657 .033065797 .067993167 .021057129 .05999756 .013061523 .04899597 .009063721 .033996583 .009063721H.0309906V-.0029296876H.23298645 .47299195L.47200013 .11807251Z" />
<path id="font_1_6" d="M.02999878 .62109377V.4990692H.041992189L.04699707 .5120697C.07299805 .5750885 .116989139 .6020813 .19400025 .6020813H.272995V.09098816C.272995 .0579834 .2669983 .036972047 .25498963 .024978638 .24699402 .016967774 .23599243 .012969971 .22200012 .012969971H.21598816V.0009765625H.4189911V.012969971H.41299439C.39898683 .012969971 .3889923 .016967774 .3809967 .024978638 .36898805 .036972047 .36299134 .0579834 .36299134 .09098816V.6020813H.44198609C.5189972 .6020813 .5629883 .5750885 .58799746 .5120697L.59298709 .4990692H.6049957V.62109377H.02999878Z" />
<path id="font_1_3" d="M.20698548 .5970917C.21499634 .6050873 .22599793 .6090851 .23899842 .6090851 .23999024 .6090851 .24099732 .6090851 .24198914 .6090851H.24499512V.62109377H.042999269V.6090851H.04899597C.06298828 .6090851 .07299805 .6050873 .08099365 .5970917 .09298706 .585083 .09899902 .5640869 .09899902 .53108218V.08804321C.09899902 .055038454 .09298706 .03404236 .08099365 .022033692 .07299805 .014038086 .06199646 .010040283 .04699707 .010040283H.04399109V-.001953125H.24598694V.010040283H.23999024C.22599793 .010040283 .21499634 .014038086 .20698548 .022033692 .19499207 .03404236 .18899536 .055038454 .18899536 .08804321V.53108218C.18899536 .5640869 .19499207 .585083 .20698548 .5970917Z" />
<path id="font_1_1" d="M.66799929 .012008667C.66799929 .012008667 .6559906 .013000488 .6529999 .014007568 .651001 .014007568 .6489868 .014007568 .6469879 .014007568 .62098696 .020996094 .6009979 .04197693 .58200076 .08294678L.34999085 .61712649 .34899903 .6191406H.31199647L.11299133 .08294678C.09298706 .032989503 .068984989 .011001587 .034988405 .011001587H.02999878V-.0009765625H.19099427V.011001587H.18399048C.1639862 .011001587 .1499939 .01600647 .14199829 .026992798 .13198853 .040985109 .13198853 .06295776 .14299011 .09692383L.19400025 .23580933H.4169922L.48298646 .078948978C.49198915 .053970338 .49299623 .036987306 .4850006 .025985718 .47999574 .018997193 .47099305 .01499939 .45899964 .013000488 .45599366 .013000488 .43998719 .013000488 .43998719 .013000488V.0010070801H.6669922L.66799929 .012008667M.20199585 .2578125 .2979889 .52204897 .40899659 .2578125H.20199585Z" />
</defs>
<g>
<use data-text="S" xlink:href="#font_1_5" transform="matrix(202.9563,0,0,-202.9563,45.5044,605.8086)" fill="#0d1b2a" />
<use data-text="E" xlink:href="#font_1_2" transform="matrix(202.9563,0,0,-202.9563,160.58063,605.8086)" fill="#0d1b2a" />
<use data-text="L" xlink:href="#font_1_4" transform="matrix(202.9563,0,0,-202.9563,267.74156,605.8086)" fill="#0d1b2a" />
<use data-text="E" xlink:href="#font_1_2" transform="matrix(202.9563,0,0,-202.9563,374.09068,605.8086)" fill="#0d1b2a" />
<use data-text="S" xlink:href="#font_1_5" transform="matrix(202.9563,0,0,-202.9563,481.2516,605.8086)" fill="#0d1b2a" />
<use data-text="T" xlink:href="#font_1_6" transform="matrix(202.9563,0,0,-202.9563,596.3278,605.8086)" fill="#0d1b2a" />
<use data-text="I" xlink:href="#font_1_3" transform="matrix(202.9563,0,0,-202.9563,726.21987,605.8086)" fill="#0d1b2a" />
<use data-text="A" xlink:href="#font_1_1" transform="matrix(202.9563,0,0,-202.9563,785.4831,605.8086)" fill="#0d1b2a" />
<use data-text="L" xlink:href="#font_1_4" transform="matrix(202.9563,0,0,-202.9563,928.1614,605.8086)" fill="#0d1b2a" />
</g>
</svg>